<svg width="154" height="85" viewBox="0 0 154 85" fill="none" xmlns="http://www.w3.org/2000/svg">
<path d="M55 17.6082V37.5207C34.0211 40.6319 41.5709 85 41.5709 85H21.446C17.3928 62.4241 19.4925 47.4047 24.1781 37.4228C18.7281 43.2067 10.966 47.7172 0 49.0186V27.5715C0 27.5715 15.4912 26.0369 17.0389 0H37.1826C37.1826 0 37.678 14.2172 31.0956 27.3989C41.4954 16.9412 55 17.6082 55 17.6082Z" fill="white"/>
<path d="M78 71.4393V73H70V63H77.7702V64.5411H71.9791V67.1438H77.1332V68.6703H71.9791V71.4247L78 71.4393Z" fill="white"/>
<path d="M79 67.9998C79 65.1001 81.2086 63.0037 84.1787 63.0037C84.8953 62.9758 85.6093 63.107 86.2698 63.388C86.9303 63.669 87.521 64.0929 88 64.6294L86.8413 65.7228C86.5165 65.3591 86.118 65.0695 85.6726 64.8735C85.2272 64.6776 84.7452 64.5798 84.2591 64.5867C83.3585 64.5867 82.4948 64.9463 81.8579 65.5863C81.2211 66.2264 80.8634 67.0946 80.8634 67.9998C80.8634 68.905 81.2211 69.7732 81.8579 70.4133C82.4948 71.0534 83.3585 71.413 84.2591 71.413C84.7467 71.4206 85.2301 71.3217 85.676 71.1231C86.1218 70.9244 86.5194 70.6308 86.8413 70.2626L88 71.3702C87.519 71.9081 86.9259 72.3327 86.2629 72.6138C85.5999 72.8948 84.8834 73.0253 84.1645 72.996C81.2086 72.996 79 70.8996 79 67.9998Z" fill="white"/>
<path d="M89 68C89 65.1456 91.1227 63 94 63C96.8773 63 99 65.1123 99 68C99 70.8877 96.8773 73 94 73C91.1227 73 89 70.8735 89 68ZM97.2682 68C97.2691 67.3231 97.078 66.6611 96.7193 66.0979C96.3605 65.5346 95.8501 65.0955 95.2528 64.836C94.6554 64.5765 93.9979 64.5084 93.3635 64.6402C92.7291 64.772 92.1464 65.0979 91.689 65.5766C91.2317 66.0552 90.9204 66.6651 90.7944 67.3291C90.6684 67.9931 90.7335 68.6812 90.9815 69.3064C91.2294 69.9317 91.649 70.4658 92.1871 70.8413C92.7253 71.2168 93.3578 71.4167 94.0045 71.4158C94.4362 71.4276 94.8656 71.3473 95.2667 71.1798C95.6677 71.0123 96.032 70.7611 96.3373 70.4415C96.6427 70.122 96.8826 69.7407 97.0427 69.321C97.2027 68.9012 97.2794 68.4518 97.2682 68Z" fill="white"/>
<path d="M100 71.8381L100.642 70.4382C101.599 71.1279 102.759 71.5017 103.951 71.5048C105.51 71.5048 106.167 70.9667 106.167 70.243C106.167 68.1432 100.216 69.5192 100.216 65.9053C100.216 64.334 101.505 63.0008 104.25 63.0008C105.422 62.9825 106.576 63.2808 107.583 63.8626L107 65.2673C106.163 64.7817 105.21 64.5174 104.235 64.5007C102.691 64.5007 102.064 65.0863 102.064 65.8243C102.064 67.8908 108 66.5433 108 70.1097C108 71.6619 106.696 72.9999 103.951 72.9999C102.392 73.0094 100.828 72.5332 100 71.8381Z" fill="white"/>
<path d="M113.366 69.4726V73H111.638V69.4971L108 63H109.846L112.575 67.8924L115.304 63H117L113.366 69.4726Z" fill="white"/>
<path d="M117 71.8381L117.642 70.4382C118.599 71.1279 119.759 71.5017 120.951 71.5048C122.51 71.5048 123.167 70.9667 123.167 70.243C123.167 68.1432 117.216 69.5192 117.216 65.9053C117.216 64.334 118.505 63.0008 121.25 63.0008C122.422 62.9825 123.576 63.2808 124.583 63.8626L123.995 65.2673C123.16 64.7812 122.208 64.5169 121.235 64.5007C119.691 64.5007 119.059 65.0863 119.059 65.8243C119.059 67.8908 125 66.5433 125 70.1097C125 71.6619 123.696 72.9999 120.951 72.9999C119.407 73.0094 117.843 72.5332 117 71.8381Z" fill="white"/>
<path d="M128.137 64.5704H125V63H133V64.5704H129.877V73H128.137V64.5704Z" fill="white"/>
<path d="M142 71.4393V73H135V63H141.813V64.5411H136.735V67.1438H141.237V68.6703H136.735V71.4247L142 71.4393Z" fill="white"/>
<path d="M152.373 72.961V66.3577L149.364 71.845H148.604L145.6 66.4844V73H144V63H145.399L149.025 69.6033L152.601 63H154V72.961H152.373Z" fill="white"/>
<path d="M69.613 39.5359H62V33H86V39.5359H78.387V58H69.613V39.5359Z" fill="white"/>
<path d="M88 33H97V58H88V33Z" fill="white"/>
<path d="M142 33L133.878 58H124.707L120.611 44.6447L116.293 58H107.122L99 33H107.823L112.248 47.2152L116.924 33H124.791L129.216 47.3935L133.892 33H142Z" fill="white"/>
<path d="M144 33H153V58H144V33Z" fill="white"/>
</svg>
